<?xml version="1.0" encoding="utf-8" standalone="no"?>
<!DOCTYPE svg PUBLIC "-//W3C//DTD SVG 1.1//EN"
  "http://www.w3.org/Graphics/SVG/1.1/DTD/svg11.dtd">
<svg xmlns:xlink="http://www.w3.org/1999/xlink" width="861.37125pt" height="441.234375pt" viewBox="0 0 861.37125 441.234375" xmlns="http://www.w3.org/2000/svg" version="1.1">
 <metadata>
  <rdf:RDF xmlns:dc="http://purl.org/dc/elements/1.1/" xmlns:cc="http://creativecommons.org/ns#" xmlns:rdf="http://www.w3.org/1999/02/22-rdf-syntax-ns#">
   <cc:Work>
    <dc:type rdf:resource="http://purl.org/dc/dcmitype/StillImage"/>
    <dc:date>2025-03-10T17:11:43.833251</dc:date>
    <dc:format>image/svg+xml</dc:format>
    <dc:creator>
     <cc:Agent>
      <dc:title>Matplotlib v3.10.1, https://matplotlib.org/</dc:title>
     </cc:Agent>
    </dc:creator>
   </cc:Work>
  </rdf:RDF>
 </metadata>
 <defs>
  <style type="text/css">*{stroke-linejoin: round; stroke-linecap: butt}</style>
 </defs>
 <g id="figure_1">
  <g id="patch_1">
   <path d="M 0 441.234375 
L 861.37125 441.234375 
L 861.37125 0 
L 0 0 
z
" style="fill: #ffffff"/>
  </g>
  <g id="axes_1">
   <g id="patch_2">
    <path d="M 50.71875 401.806875 
L 410.71875 401.806875 
L 410.71875 13.006875 
L 50.71875 13.006875 
z
" style="fill: #ffffff"/>
   </g>
   <g id="line2d_1">
    <path d="M 50.71875 401.806875 
L 51.91875 401.806875 
L 52.51875 398.890875 
L 56.11875 398.890875 
L 56.71875 397.918875 
L 57.91875 397.918875 
L 58.51875 396.946875 
L 59.11875 396.946875 
L 59.71875 394.030875 
L 60.31875 394.030875 
L 62.11875 391.114875 
L 62.71875 391.114875 
L 63.31875 389.170875 
L 65.71875 385.282875 
L 66.31875 385.282875 
L 66.91875 383.338875 
L 68.71875 383.338875 
L 69.91875 381.394875 
L 70.51875 379.450875 
L 71.11875 378.478875 
L 72.31875 374.590875 
L 72.91875 373.618875 
L 73.51875 373.618875 
L 74.71875 371.674875 
L 78.91875 371.674875 
L 79.51875 370.702875 
L 80.11875 370.702875 
L 80.71875 369.730875 
L 83.71875 369.730875 
L 84.31875 368.758875 
L 86.11875 368.758875 
L 86.71875 367.786875 
L 89.71875 367.786875 
L 90.91875 365.842875 
L 91.51875 365.842875 
L 92.11875 364.870875 
L 92.71875 362.926875 
L 93.31875 362.926875 
L 94.51875 360.982875 
L 95.11875 360.982875 
L 95.71875 360.010875 
L 96.31875 357.094875 
L 96.91875 356.122875 
L 97.51875 356.122875 
L 98.11875 354.178875 
L 99.31875 354.178875 
L 99.91875 353.206875 
L 102.31875 353.206875 
L 102.91875 352.234875 
L 103.51875 352.234875 
L 105.31875 349.318875 
L 106.51875 349.318875 
L 107.11875 348.346875 
L 107.71875 345.430875 
L 108.91875 345.430875 
L 110.11875 343.486875 
L 110.71875 343.486875 
L 111.31875 342.514875 
L 111.91875 342.514875 
L 113.11875 340.570875 
L 113.71875 340.570875 
L 114.31875 339.598875 
L 116.71875 339.598875 
L 117.91875 337.654875 
L 118.51875 337.654875 
L 119.11875 336.682875 
L 119.71875 336.682875 
L 120.31875 334.738875 
L 120.91875 334.738875 
L 121.51875 331.822875 
L 123.91875 327.934875 
L 125.11875 327.934875 
L 125.71875 326.962875 
L 126.31875 324.046875 
L 126.91875 324.046875 
L 128.11875 322.102875 
L 128.71875 322.102875 
L 131.11875 318.214875 
L 134.11875 318.214875 
L 134.71875 317.242875 
L 136.51875 317.242875 
L 137.11875 314.326875 
L 138.91875 314.326875 
L 140.11875 312.382875 
L 141.31875 312.382875 
L 141.91875 311.410875 
L 142.51875 308.494875 
L 143.11875 308.494875 
L 143.71875 307.522875 
L 144.91875 307.522875 
L 145.51875 306.550875 
L 146.71875 306.550875 
L 148.51875 303.634875 
L 152.71875 303.634875 
L 153.31875 302.662875 
L 153.91875 302.662875 
L 155.71875 299.746875 
L 156.31875 299.746875 
L 157.51875 297.802875 
L 158.11875 295.858875 
L 158.71875 295.858875 
L 159.31875 294.886875 
L 159.91875 294.886875 
L 161.71875 291.970875 
L 162.31875 291.970875 
L 162.91875 290.998875 
L 164.11875 290.998875 
L 164.71875 290.026875 
L 166.51875 290.026875 
L 167.11875 289.054875 
L 167.71875 289.054875 
L 168.31875 288.082875 
L 168.91875 288.082875 
L 169.51875 287.110875 
L 170.11875 285.166875 
L 170.71875 285.166875 
L 172.51875 282.250875 
L 174.31875 276.418875 
L 174.91875 276.418875 
L 175.51875 275.446875 
L 176.11875 275.446875 
L 176.71875 274.474875 
L 177.31875 272.530875 
L 178.51875 272.530875 
L 181.51875 262.810875 
L 182.11875 259.894875 
L 182.71875 258.922875 
L 184.51875 258.922875 
L 186.31875 256.006875 
L 187.51875 252.118875 
L 188.11875 249.202875 
L 188.71875 249.202875 
L 189.91875 247.258875 
L 190.51875 247.258875 
L 191.11875 246.286875 
L 191.71875 246.286875 
L 192.91875 244.342875 
L 193.51875 244.342875 
L 194.11875 242.398875 
L 194.71875 241.426875 
L 197.71875 241.426875 
L 198.31875 240.454875 
L 203.11875 240.454875 
L 204.31875 238.510875 
L 204.91875 238.510875 
L 205.51875 237.538875 
L 206.71875 237.538875 
L 207.31875 236.566875 
L 212.11875 236.566875 
L 213.31875 234.622875 
L 214.51875 234.622875 
L 216.91875 230.734875 
L 217.51875 228.790875 
L 218.11875 228.790875 
L 218.71875 226.846875 
L 219.31875 225.874875 
L 221.11875 225.874875 
L 223.51875 221.986875 
L 225.91875 221.986875 
L 226.51875 221.014875 
L 227.11875 221.014875 
L 227.71875 219.070875 
L 228.31875 218.098875 
L 231.31875 218.098875 
L 232.51875 216.154875 
L 233.11875 216.154875 
L 233.71875 215.182875 
L 234.31875 215.182875 
L 235.51875 213.238875 
L 236.11875 211.294875 
L 239.71875 211.294875 
L 240.31875 209.350875 
L 241.51875 209.350875 
L 242.11875 208.378875 
L 242.71875 208.378875 
L 243.91875 206.434875 
L 244.51875 206.434875 
L 245.11875 205.462875 
L 245.71875 205.462875 
L 246.31875 203.518875 
L 248.11875 203.518875 
L 248.71875 201.574875 
L 249.31875 201.574875 
L 250.51875 199.630875 
L 251.71875 199.630875 
L 252.91875 197.686875 
L 254.11875 197.686875 
L 256.51875 193.798875 
L 257.11875 193.798875 
L 258.31875 191.854875 
L 258.91875 191.854875 
L 259.51875 190.882875 
L 260.71875 190.882875 
L 261.91875 188.938875 
L 263.11875 188.938875 
L 266.71875 183.106875 
L 267.91875 183.106875 
L 269.11875 179.218875 
L 269.71875 176.302875 
L 270.31875 175.330875 
L 271.51875 169.498875 
L 272.11875 168.526875 
L 276.91875 168.526875 
L 277.51875 166.582875 
L 279.91875 166.582875 
L 280.51875 164.638875 
L 281.11875 161.722875 
L 282.31875 161.722875 
L 282.91875 160.750875 
L 284.11875 160.750875 
L 286.51875 156.862875 
L 287.11875 156.862875 
L 288.31875 154.918875 
L 290.71875 154.918875 
L 291.31875 153.946875 
L 291.91875 153.946875 
L 292.51875 151.030875 
L 293.11875 150.058875 
L 294.91875 150.058875 
L 295.51875 148.114875 
L 296.11875 147.142875 
L 299.11875 147.142875 
L 299.71875 146.170875 
L 300.31875 146.170875 
L 300.91875 144.226875 
L 301.51875 144.226875 
L 302.11875 142.282875 
L 303.31875 142.282875 
L 303.91875 141.310875 
L 305.71875 141.310875 
L 306.91875 139.366875 
L 307.51875 139.366875 
L 308.11875 138.394875 
L 308.71875 138.394875 
L 309.31875 136.450875 
L 309.91875 136.450875 
L 310.51875 135.478875 
L 311.11875 135.478875 
L 311.71875 134.506875 
L 312.31875 131.590875 
L 313.51875 131.590875 
L 314.71875 127.702875 
L 315.31875 126.730875 
L 315.91875 126.730875 
L 317.11875 124.786875 
L 319.51875 124.786875 
L 321.91875 120.898875 
L 322.51875 118.954875 
L 323.11875 117.982875 
L 324.31875 117.982875 
L 325.51875 116.038875 
L 326.71875 116.038875 
L 327.31875 115.066875 
L 327.91875 113.122875 
L 333.91875 113.122875 
L 334.51875 110.206875 
L 335.71875 110.206875 
L 336.31875 109.234875 
L 337.51875 109.234875 
L 338.11875 108.262875 
L 338.71875 108.262875 
L 339.31875 107.290875 
L 340.51875 107.290875 
L 341.11875 104.374875 
L 341.71875 104.374875 
L 342.31875 103.402875 
L 344.71875 103.402875 
L 345.31875 101.458875 
L 346.51875 99.514875 
L 348.31875 99.514875 
L 348.91875 97.570875 
L 350.11875 97.570875 
L 350.71875 96.598875 
L 351.31875 96.598875 
L 351.91875 95.626875 
L 353.11875 95.626875 
L 353.71875 94.654875 
L 354.31875 94.654875 
L 354.91875 93.682875 
L 355.51875 93.682875 
L 356.71875 91.738875 
L 357.31875 89.794875 
L 357.91875 88.822875 
L 358.51875 86.878875 
L 359.71875 86.878875 
L 360.31875 85.906875 
L 360.91875 82.990875 
L 361.51875 82.990875 
L 362.11875 82.018875 
L 362.71875 82.018875 
L 363.31875 81.046875 
L 363.91875 81.046875 
L 364.51875 80.074875 
L 365.71875 76.186875 
L 366.91875 74.242875 
L 368.71875 74.242875 
L 369.31875 72.298875 
L 370.51875 72.298875 
L 372.91875 68.410875 
L 374.11875 68.410875 
L 375.91875 65.494875 
L 376.51875 65.494875 
L 377.11875 64.522875 
L 378.31875 64.522875 
L 379.51875 62.578875 
L 381.91875 62.578875 
L 384.31875 58.690875 
L 384.91875 58.690875 
L 385.51875 57.718875 
L 387.31875 57.718875 
L 387.91875 55.774875 
L 389.11875 55.774875 
L 389.71875 54.802875 
L 390.31875 54.802875 
L 390.91875 53.830875 
L 391.51875 53.830875 
L 392.11875 52.858875 
L 396.91875 52.858875 
L 397.51875 51.886875 
L 398.11875 51.886875 
L 399.31875 49.942875 
L 399.91875 49.942875 
L 400.51875 48.970875 
L 401.71875 48.970875 
L 402.31875 47.026875 
L 403.51875 47.026875 
L 404.11875 45.082875 
L 404.71875 45.082875 
L 405.91875 43.138875 
L 406.51875 40.222875 
L 408.31875 40.222875 
L 408.91875 39.250875 
L 409.51875 39.250875 
L 410.11875 38.278875 
L 410.71875 38.278875 
L 410.71875 38.278875 
" clip-path="url(#p107a74b20e)" style="fill: none; stroke: #0000ff; stroke-linecap: square"/>
   </g>
   <g id="patch_3">
    <path d="M 50.71875 401.806875 
L 50.71875 13.006875 
" style="fill: none; stroke: #000000; stroke-linejoin: miter; stroke-linecap: square"/>
   </g>
   <g id="patch_4">
    <path d="M 410.71875 401.806875 
L 410.71875 13.006875 
" style="fill: none; stroke: #000000; stroke-linejoin: miter; stroke-linecap: square"/>
   </g>
   <g id="patch_5">
    <path d="M 50.71875 401.806875 
L 410.71875 401.806875 
" style="fill: none; stroke: #000000; stroke-linejoin: miter; stroke-linecap: square"/>
   </g>
   <g id="patch_6">
    <path d="M 50.71875 13.006875 
L 410.71875 13.006875 
" style="fill: none; stroke: #000000; stroke-linejoin: miter; stroke-linecap: square"/>
   </g>
   <g id="matplotlib.axis_1">
    <g id="xtick_1">
     <g id="line2d_2">
      <path d="M 50.71875 401.806875 
L 50.71875 13.006875 
" clip-path="url(#p107a74b20e)" style="fill: none; stroke-dasharray: 1,3; stroke-dashoffset: 0; stroke: #000000; stroke-width: 0.5"/>
     </g>
     <g id="line2d_3">
      <defs>
       <path id="m22fe06038a" d="M 0 0 
L 0 -4 
" style="stroke: #000000; stroke-width: 0.5"/>
      </defs>
      <g>
       <use xlink:href="#m22fe06038a" x="50.71875" y="401.806875" style="stroke: #000000; stroke-width: 0.5"/>
      </g>
     </g>
     <g id="line2d_4">
      <defs>
       <path id="m2999782856" d="M 0 0 
L 0 4 
" style="stroke: #000000; stroke-width: 0.5"/>
      </defs>
      <g>
       <use xlink:href="#m2999782856" x="50.71875" y="13.006875" style="stroke: #000000; stroke-width: 0.5"/>
      </g>
     </g>
     <g id="text_1">
      <!-- 0 -->
      <g transform="translate(46.90125 414.925) scale(0.12 -0.12)">
       <defs>
        <path id="DejaVuSans-30" d="M 2034 4250 
Q 1547 4250 1301 3770 
Q 1056 3291 1056 2328 
Q 1056 1369 1301 889 
Q 1547 409 2034 409 
Q 2525 409 2770 889 
Q 3016 1369 3016 2328 
Q 3016 3291 2770 3770 
Q 2525 4250 2034 4250 
z
M 2034 4750 
Q 2819 4750 3233 4129 
Q 3647 3509 3647 2328 
Q 3647 1150 3233 529 
Q 2819 -91 2034 -91 
Q 1250 -91 836 529 
Q 422 1150 422 2328 
Q 422 3509 836 4129 
Q 1250 4750 2034 4750 
z
" transform="scale(0.015625)"/>
       </defs>
       <use xlink:href="#DejaVuSans-30"/>
      </g>
     </g>
    </g>
    <g id="xtick_2">
     <g id="line2d_5">
      <path d="M 110.71875 401.806875 
L 110.71875 13.006875 
" clip-path="url(#p107a74b20e)" style="fill: none; stroke-dasharray: 1,3; stroke-dashoffset: 0; stroke: #000000; stroke-width: 0.5"/>
     </g>
     <g id="line2d_6">
      <g>
       <use xlink:href="#m22fe06038a" x="110.71875" y="401.806875" style="stroke: #000000; stroke-width: 0.5"/>
      </g>
     </g>
     <g id="line2d_7">
      <g>
       <use xlink:href="#m2999782856" x="110.71875" y="13.006875" style="stroke: #000000; stroke-width: 0.5"/>
      </g>
     </g>
     <g id="text_2">
      <!-- 100 -->
      <g transform="translate(99.26625 414.925) scale(0.12 -0.12)">
       <defs>
        <path id="DejaVuSans-31" d="M 794 531 
L 1825 531 
L 1825 4091 
L 703 3866 
L 703 4441 
L 1819 4666 
L 2450 4666 
L 2450 531 
L 3481 531 
L 3481 0 
L 794 0 
L 794 531 
z
" transform="scale(0.015625)"/>
       </defs>
       <use xlink:href="#DejaVuSans-31"/>
       <use xlink:href="#DejaVuSans-30" transform="translate(63.623047 0)"/>
       <use xlink:href="#DejaVuSans-30" transform="translate(127.246094 0)"/>
      </g>
     </g>
    </g>
    <g id="xtick_3">
     <g id="line2d_8">
      <path d="M 170.71875 401.806875 
L 170.71875 13.006875 
" clip-path="url(#p107a74b20e)" style="fill: none; stroke-dasharray: 1,3; stroke-dashoffset: 0; stroke: #000000; stroke-width: 0.5"/>
     </g>
     <g id="line2d_9">
      <g>
       <use xlink:href="#m22fe06038a" x="170.71875" y="401.806875" style="stroke: #000000; stroke-width: 0.5"/>
      </g>
     </g>
     <g id="line2d_10">
      <g>
       <use xlink:href="#m2999782856" x="170.71875" y="13.006875" style="stroke: #000000; stroke-width: 0.5"/>
      </g>
     </g>
     <g id="text_3">
      <!-- 200 -->
      <g transform="translate(159.26625 414.925) scale(0.12 -0.12)">
       <defs>
        <path id="DejaVuSans-32" d="M 1228 531 
L 3431 531 
L 3431 0 
L 469 0 
L 469 531 
Q 828 903 1448 1529 
Q 2069 2156 2228 2338 
Q 2531 2678 2651 2914 
Q 2772 3150 2772 3378 
Q 2772 3750 2511 3984 
Q 2250 4219 1831 4219 
Q 1534 4219 1204 4116 
Q 875 4013 500 3803 
L 500 4441 
Q 881 4594 1212 4672 
Q 1544 4750 1819 4750 
Q 2544 4750 2975 4387 
Q 3406 4025 3406 3419 
Q 3406 3131 3298 2873 
Q 3191 2616 2906 2266 
Q 2828 2175 2409 1742 
Q 1991 1309 1228 531 
z
" transform="scale(0.015625)"/>
       </defs>
       <use xlink:href="#DejaVuSans-32"/>
       <use xlink:href="#DejaVuSans-30" transform="translate(63.623047 0)"/>
       <use xlink:href="#DejaVuSans-30" transform="translate(127.246094 0)"/>
      </g>
     </g>
    </g>
    <g id="xtick_4">
     <g id="line2d_11">
      <path d="M 230.71875 401.806875 
L 230.71875 13.006875 
" clip-path="url(#p107a74b20e)" style="fill: none; stroke-dasharray: 1,3; stroke-dashoffset: 0; stroke: #000000; stroke-width: 0.5"/>
     </g>
     <g id="line2d_12">
      <g>
       <use xlink:href="#m22fe06038a" x="230.71875" y="401.806875" style="stroke: #000000; stroke-width: 0.5"/>
      </g>
     </g>
     <g id="line2d_13">
      <g>
       <use xlink:href="#m2999782856" x="230.71875" y="13.006875" style="stroke: #000000; stroke-width: 0.5"/>
      </g>
     </g>
     <g id="text_4">
      <!-- 300 -->
      <g transform="translate(219.26625 414.925) scale(0.12 -0.12)">
       <defs>
        <path id="DejaVuSans-33" d="M 2597 2516 
Q 3050 2419 3304 2112 
Q 3559 1806 3559 1356 
Q 3559 666 3084 287 
Q 2609 -91 1734 -91 
Q 1441 -91 1130 -33 
Q 819 25 488 141 
L 488 750 
Q 750 597 1062 519 
Q 1375 441 1716 441 
Q 2309 441 2620 675 
Q 2931 909 2931 1356 
Q 2931 1769 2642 2001 
Q 2353 2234 1838 2234 
L 1294 2234 
L 1294 2753 
L 1863 2753 
Q 2328 2753 2575 2939 
Q 2822 3125 2822 3475 
Q 2822 3834 2567 4026 
Q 2313 4219 1838 4219 
Q 1578 4219 1281 4162 
Q 984 4106 628 3988 
L 628 4550 
Q 988 4650 1302 4700 
Q 1616 4750 1894 4750 
Q 2613 4750 3031 4423 
Q 3450 4097 3450 3541 
Q 3450 3153 3228 2886 
Q 3006 2619 2597 2516 
z
" transform="scale(0.015625)"/>
       </defs>
       <use xlink:href="#DejaVuSans-33"/>
       <use xlink:href="#DejaVuSans-30" transform="translate(63.623047 0)"/>
       <use xlink:href="#DejaVuSans-30" transform="translate(127.246094 0)"/>
      </g>
     </g>
    </g>
    <g id="xtick_5">
     <g id="line2d_14">
      <path d="M 290.71875 401.806875 
L 290.71875 13.006875 
" clip-path="url(#p107a74b20e)" style="fill: none; stroke-dasharray: 1,3; stroke-dashoffset: 0; stroke: #000000; stroke-width: 0.5"/>
     </g>
     <g id="line2d_15">
      <g>
       <use xlink:href="#m22fe06038a" x="290.71875" y="401.806875" style="stroke: #000000; stroke-width: 0.5"/>
      </g>
     </g>
     <g id="line2d_16">
      <g>
       <use xlink:href="#m2999782856" x="290.71875" y="13.006875" style="stroke: #000000; stroke-width: 0.5"/>
      </g>
     </g>
     <g id="text_5">
      <!-- 400 -->
      <g transform="translate(279.26625 414.925) scale(0.12 -0.12)">
       <defs>
        <path id="DejaVuSans-34" d="M 2419 4116 
L 825 1625 
L 2419 1625 
L 2419 4116 
z
M 2253 4666 
L 3047 4666 
L 3047 1625 
L 3713 1625 
L 3713 1100 
L 3047 1100 
L 3047 0 
L 2419 0 
L 2419 1100 
L 313 1100 
L 313 1709 
L 2253 4666 
z
" transform="scale(0.015625)"/>
       </defs>
       <use xlink:href="#DejaVuSans-34"/>
       <use xlink:href="#DejaVuSans-30" transform="translate(63.623047 0)"/>
       <use xlink:href="#DejaVuSans-30" transform="translate(127.246094 0)"/>
      </g>
     </g>
    </g>
    <g id="xtick_6">
     <g id="line2d_17">
      <path d="M 350.71875 401.806875 
L 350.71875 13.006875 
" clip-path="url(#p107a74b20e)" style="fill: none; stroke-dasharray: 1,3; stroke-dashoffset: 0; stroke: #000000; stroke-width: 0.5"/>
     </g>
     <g id="line2d_18">
      <g>
       <use xlink:href="#m22fe06038a" x="350.71875" y="401.806875" style="stroke: #000000; stroke-width: 0.5"/>
      </g>
     </g>
     <g id="line2d_19">
      <g>
       <use xlink:href="#m2999782856" x="350.71875" y="13.006875" style="stroke: #000000; stroke-width: 0.5"/>
      </g>
     </g>
     <g id="text_6">
      <!-- 500 -->
      <g transform="translate(339.26625 414.925) scale(0.12 -0.12)">
       <defs>
        <path id="DejaVuSans-35" d="M 691 4666 
L 3169 4666 
L 3169 4134 
L 1269 4134 
L 1269 2991 
Q 1406 3038 1543 3061 
Q 1681 3084 1819 3084 
Q 2600 3084 3056 2656 
Q 3513 2228 3513 1497 
Q 3513 744 3044 326 
Q 2575 -91 1722 -91 
Q 1428 -91 1123 -41 
Q 819 9 494 109 
L 494 744 
Q 775 591 1075 516 
Q 1375 441 1709 441 
Q 2250 441 2565 725 
Q 2881 1009 2881 1497 
Q 2881 1984 2565 2268 
Q 2250 2553 1709 2553 
Q 1456 2553 1204 2497 
Q 953 2441 691 2322 
L 691 4666 
z
" transform="scale(0.015625)"/>
       </defs>
       <use xlink:href="#DejaVuSans-35"/>
       <use xlink:href="#DejaVuSans-30" transform="translate(63.623047 0)"/>
       <use xlink:href="#DejaVuSans-30" transform="translate(127.246094 0)"/>
      </g>
     </g>
    </g>
    <g id="xtick_7">
     <g id="line2d_20">
      <path d="M 410.71875 401.806875 
L 410.71875 13.006875 
" clip-path="url(#p107a74b20e)" style="fill: none; stroke-dasharray: 1,3; stroke-dashoffset: 0; stroke: #000000; stroke-width: 0.5"/>
     </g>
     <g id="line2d_21">
      <g>
       <use xlink:href="#m22fe06038a" x="410.71875" y="401.806875" style="stroke: #000000; stroke-width: 0.5"/>
      </g>
     </g>
     <g id="line2d_22">
      <g>
       <use xlink:href="#m2999782856" x="410.71875" y="13.006875" style="stroke: #000000; stroke-width: 0.5"/>
      </g>
     </g>
     <g id="text_7">
      <!-- 600 -->
      <g transform="translate(399.26625 414.925) scale(0.12 -0.12)">
       <defs>
        <path id="DejaVuSans-36" d="M 2113 2584 
Q 1688 2584 1439 2293 
Q 1191 2003 1191 1497 
Q 1191 994 1439 701 
Q 1688 409 2113 409 
Q 2538 409 2786 701 
Q 3034 994 3034 1497 
Q 3034 2003 2786 2293 
Q 2538 2584 2113 2584 
z
M 3366 4563 
L 3366 3988 
Q 3128 4100 2886 4159 
Q 2644 4219 2406 4219 
Q 1781 4219 1451 3797 
Q 1122 3375 1075 2522 
Q 1259 2794 1537 2939 
Q 1816 3084 2150 3084 
Q 2853 3084 3261 2657 
Q 3669 2231 3669 1497 
Q 3669 778 3244 343 
Q 2819 -91 2113 -91 
Q 1303 -91 875 529 
Q 447 1150 447 2328 
Q 447 3434 972 4092 
Q 1497 4750 2381 4750 
Q 2619 4750 2861 4703 
Q 3103 4656 3366 4563 
z
" transform="scale(0.015625)"/>
       </defs>
       <use xlink:href="#DejaVuSans-36"/>
       <use xlink:href="#DejaVuSans-30" transform="translate(63.623047 0)"/>
       <use xlink:href="#DejaVuSans-30" transform="translate(127.246094 0)"/>
      </g>
     </g>
    </g>
    <g id="text_8">
     <!-- time(s) -->
     <g transform="translate(209.355938 431.53875) scale(0.12 -0.12)">
      <defs>
       <path id="DejaVuSans-74" d="M 1172 4494 
L 1172 3500 
L 2356 3500 
L 2356 3053 
L 1172 3053 
L 1172 1153 
Q 1172 725 1289 603 
Q 1406 481 1766 481 
L 2356 481 
L 2356 0 
L 1766 0 
Q 1100 0 847 248 
Q 594 497 594 1153 
L 594 3053 
L 172 3053 
L 172 3500 
L 594 3500 
L 594 4494 
L 1172 4494 
z
" transform="scale(0.015625)"/>
       <path id="DejaVuSans-69" d="M 603 3500 
L 1178 3500 
L 1178 0 
L 603 0 
L 603 3500 
z
M 603 4863 
L 1178 4863 
L 1178 4134 
L 603 4134 
L 603 4863 
z
" transform="scale(0.015625)"/>
       <path id="DejaVuSans-6d" d="M 3328 2828 
Q 3544 3216 3844 3400 
Q 4144 3584 4550 3584 
Q 5097 3584 5394 3201 
Q 5691 2819 5691 2113 
L 5691 0 
L 5113 0 
L 5113 2094 
Q 5113 2597 4934 2840 
Q 4756 3084 4391 3084 
Q 3944 3084 3684 2787 
Q 3425 2491 3425 1978 
L 3425 0 
L 2847 0 
L 2847 2094 
Q 2847 2600 2669 2842 
Q 2491 3084 2119 3084 
Q 1678 3084 1418 2786 
Q 1159 2488 1159 1978 
L 1159 0 
L 581 0 
L 581 3500 
L 1159 3500 
L 1159 2956 
Q 1356 3278 1631 3431 
Q 1906 3584 2284 3584 
Q 2666 3584 2933 3390 
Q 3200 3197 3328 2828 
z
" transform="scale(0.015625)"/>
       <path id="DejaVuSans-65" d="M 3597 1894 
L 3597 1613 
L 953 1613 
Q 991 1019 1311 708 
Q 1631 397 2203 397 
Q 2534 397 2845 478 
Q 3156 559 3463 722 
L 3463 178 
Q 3153 47 2828 -22 
Q 2503 -91 2169 -91 
Q 1331 -91 842 396 
Q 353 884 353 1716 
Q 353 2575 817 3079 
Q 1281 3584 2069 3584 
Q 2775 3584 3186 3129 
Q 3597 2675 3597 1894 
z
M 3022 2063 
Q 3016 2534 2758 2815 
Q 2500 3097 2075 3097 
Q 1594 3097 1305 2825 
Q 1016 2553 972 2059 
L 3022 2063 
z
" transform="scale(0.015625)"/>
       <path id="DejaVuSans-28" d="M 1984 4856 
Q 1566 4138 1362 3434 
Q 1159 2731 1159 2009 
Q 1159 1288 1364 580 
Q 1569 -128 1984 -844 
L 1484 -844 
Q 1016 -109 783 600 
Q 550 1309 550 2009 
Q 550 2706 781 3412 
Q 1013 4119 1484 4856 
L 1984 4856 
z
" transform="scale(0.015625)"/>
       <path id="DejaVuSans-73" d="M 2834 3397 
L 2834 2853 
Q 2591 2978 2328 3040 
Q 2066 3103 1784 3103 
Q 1356 3103 1142 2972 
Q 928 2841 928 2578 
Q 928 2378 1081 2264 
Q 1234 2150 1697 2047 
L 1894 2003 
Q 2506 1872 2764 1633 
Q 3022 1394 3022 966 
Q 3022 478 2636 193 
Q 2250 -91 1575 -91 
Q 1294 -91 989 -36 
Q 684 19 347 128 
L 347 722 
Q 666 556 975 473 
Q 1284 391 1588 391 
Q 1994 391 2212 530 
Q 2431 669 2431 922 
Q 2431 1156 2273 1281 
Q 2116 1406 1581 1522 
L 1381 1569 
Q 847 1681 609 1914 
Q 372 2147 372 2553 
Q 372 3047 722 3315 
Q 1072 3584 1716 3584 
Q 2034 3584 2315 3537 
Q 2597 3491 2834 3397 
z
" transform="scale(0.015625)"/>
       <path id="DejaVuSans-29" d="M 513 4856 
L 1013 4856 
Q 1481 4119 1714 3412 
Q 1947 2706 1947 2009 
Q 1947 1309 1714 600 
Q 1481 -109 1013 -844 
L 513 -844 
Q 928 -128 1133 580 
Q 1338 1288 1338 2009 
Q 1338 2731 1133 3434 
Q 928 4138 513 4856 
z
" transform="scale(0.015625)"/>
      </defs>
      <use xlink:href="#DejaVuSans-74"/>
      <use xlink:href="#DejaVuSans-69" transform="translate(39.208984 0)"/>
      <use xlink:href="#DejaVuSans-6d" transform="translate(66.992188 0)"/>
      <use xlink:href="#DejaVuSans-65" transform="translate(164.404297 0)"/>
      <use xlink:href="#DejaVuSans-28" transform="translate(225.927734 0)"/>
      <use xlink:href="#DejaVuSans-73" transform="translate(264.941406 0)"/>
      <use xlink:href="#DejaVuSans-29" transform="translate(317.041016 0)"/>
     </g>
    </g>
   </g>
   <g id="matplotlib.axis_2">
    <g id="ytick_1">
     <g id="line2d_23">
      <path d="M 50.71875 401.806875 
L 410.71875 401.806875 
" clip-path="url(#p107a74b20e)" style="fill: none; stroke-dasharray: 1,3; stroke-dashoffset: 0; stroke: #000000; stroke-width: 0.5"/>
     </g>
     <g id="line2d_24">
      <defs>
       <path id="m3504da8273" d="M 0 0 
L 4 0 
" style="stroke: #000000; stroke-width: 0.5"/>
      </defs>
      <g>
       <use xlink:href="#m3504da8273" x="50.71875" y="401.806875" style="stroke: #000000; stroke-width: 0.5"/>
      </g>
     </g>
     <g id="line2d_25">
      <defs>
       <path id="m85d2053ba9" d="M 0 0 
L -4 0 
" style="stroke: #000000; stroke-width: 0.5"/>
      </defs>
      <g>
       <use xlink:href="#m85d2053ba9" x="410.71875" y="401.806875" style="stroke: #000000; stroke-width: 0.5"/>
      </g>
     </g>
     <g id="text_9">
      <!-- 0 -->
      <g transform="translate(39.08375 405.118125) scale(0.12 -0.12)">
       <use xlink:href="#DejaVuSans-30"/>
      </g>
     </g>
    </g>
    <g id="ytick_2">
     <g id="line2d_26">
      <path d="M 50.71875 353.206875 
L 410.71875 353.206875 
" clip-path="url(#p107a74b20e)" style="fill: none; stroke-dasharray: 1,3; stroke-dashoffset: 0; stroke: #000000; stroke-width: 0.5"/>
     </g>
     <g id="line2d_27">
      <g>
       <use xlink:href="#m3504da8273" x="50.71875" y="353.206875" style="stroke: #000000; stroke-width: 0.5"/>
      </g>
     </g>
     <g id="line2d_28">
      <g>
       <use xlink:href="#m85d2053ba9" x="410.71875" y="353.206875" style="stroke: #000000; stroke-width: 0.5"/>
      </g>
     </g>
     <g id="text_10">
      <!-- 50 -->
      <g transform="translate(31.44875 356.518125) scale(0.12 -0.12)">
       <use xlink:href="#DejaVuSans-35"/>
       <use xlink:href="#DejaVuSans-30" transform="translate(63.623047 0)"/>
      </g>
     </g>
    </g>
    <g id="ytick_3">
     <g id="line2d_29">
      <path d="M 50.71875 304.606875 
L 410.71875 304.606875 
" clip-path="url(#p107a74b20e)" style="fill: none; stroke-dasharray: 1,3; stroke-dashoffset: 0; stroke: #000000; stroke-width: 0.5"/>
     </g>
     <g id="line2d_30">
      <g>
       <use xlink:href="#m3504da8273" x="50.71875" y="304.606875" style="stroke: #000000; stroke-width: 0.5"/>
      </g>
     </g>
     <g id="line2d_31">
      <g>
       <use xlink:href="#m85d2053ba9" x="410.71875" y="304.606875" style="stroke: #000000; stroke-width: 0.5"/>
      </g>
     </g>
     <g id="text_11">
      <!-- 100 -->
      <g transform="translate(23.81375 307.918125) scale(0.12 -0.12)">
       <use xlink:href="#DejaVuSans-31"/>
       <use xlink:href="#DejaVuSans-30" transform="translate(63.623047 0)"/>
       <use xlink:href="#DejaVuSans-30" transform="translate(127.246094 0)"/>
      </g>
     </g>
    </g>
    <g id="ytick_4">
     <g id="line2d_32">
      <path d="M 50.71875 256.006875 
L 410.71875 256.006875 
" clip-path="url(#p107a74b20e)" style="fill: none; stroke-dasharray: 1,3; stroke-dashoffset: 0; stroke: #000000; stroke-width: 0.5"/>
     </g>
     <g id="line2d_33">
      <g>
       <use xlink:href="#m3504da8273" x="50.71875" y="256.006875" style="stroke: #000000; stroke-width: 0.5"/>
      </g>
     </g>
     <g id="line2d_34">
      <g>
       <use xlink:href="#m85d2053ba9" x="410.71875" y="256.006875" style="stroke: #000000; stroke-width: 0.5"/>
      </g>
     </g>
     <g id="text_12">
      <!-- 150 -->
      <g transform="translate(23.81375 259.318125) scale(0.12 -0.12)">
       <use xlink:href="#DejaVuSans-31"/>
       <use xlink:href="#DejaVuSans-35" transform="translate(63.623047 0)"/>
       <use xlink:href="#DejaVuSans-30" transform="translate(127.246094 0)"/>
      </g>
     </g>
    </g>
    <g id="ytick_5">
     <g id="line2d_35">
      <path d="M 50.71875 207.406875 
L 410.71875 207.406875 
" clip-path="url(#p107a74b20e)" style="fill: none; stroke-dasharray: 1,3; stroke-dashoffset: 0; stroke: #000000; stroke-width: 0.5"/>
     </g>
     <g id="line2d_36">
      <g>
       <use xlink:href="#m3504da8273" x="50.71875" y="207.406875" style="stroke: #000000; stroke-width: 0.5"/>
      </g>
     </g>
     <g id="line2d_37">
      <g>
       <use xlink:href="#m85d2053ba9" x="410.71875" y="207.406875" style="stroke: #000000; stroke-width: 0.5"/>
      </g>
     </g>
     <g id="text_13">
      <!-- 200 -->
      <g transform="translate(23.81375 210.718125) scale(0.12 -0.12)">
       <use xlink:href="#DejaVuSans-32"/>
       <use xlink:href="#DejaVuSans-30" transform="translate(63.623047 0)"/>
       <use xlink:href="#DejaVuSans-30" transform="translate(127.246094 0)"/>
      </g>
     </g>
    </g>
    <g id="ytick_6">
     <g id="line2d_38">
      <path d="M 50.71875 158.806875 
L 410.71875 158.806875 
" clip-path="url(#p107a74b20e)" style="fill: none; stroke-dasharray: 1,3; stroke-dashoffset: 0; stroke: #000000; stroke-width: 0.5"/>
     </g>
     <g id="line2d_39">
      <g>
       <use xlink:href="#m3504da8273" x="50.71875" y="158.806875" style="stroke: #000000; stroke-width: 0.5"/>
      </g>
     </g>
     <g id="line2d_40">
      <g>
       <use xlink:href="#m85d2053ba9" x="410.71875" y="158.806875" style="stroke: #000000; stroke-width: 0.5"/>
      </g>
     </g>
     <g id="text_14">
      <!-- 250 -->
      <g transform="translate(23.81375 162.118125) scale(0.12 -0.12)">
       <use xlink:href="#DejaVuSans-32"/>
       <use xlink:href="#DejaVuSans-35" transform="translate(63.623047 0)"/>
       <use xlink:href="#DejaVuSans-30" transform="translate(127.246094 0)"/>
      </g>
     </g>
    </g>
    <g id="ytick_7">
     <g id="line2d_41">
      <path d="M 50.71875 110.206875 
L 410.71875 110.206875 
" clip-path="url(#p107a74b20e)" style="fill: none; stroke-dasharray: 1,3; stroke-dashoffset: 0; stroke: #000000; stroke-width: 0.5"/>
     </g>
     <g id="line2d_42">
      <g>
       <use xlink:href="#m3504da8273" x="50.71875" y="110.206875" style="stroke: #000000; stroke-width: 0.5"/>
      </g>
     </g>
     <g id="line2d_43">
      <g>
       <use xlink:href="#m85d2053ba9" x="410.71875" y="110.206875" style="stroke: #000000; stroke-width: 0.5"/>
      </g>
     </g>
     <g id="text_15">
      <!-- 300 -->
      <g transform="translate(23.81375 113.518125) scale(0.12 -0.12)">
       <use xlink:href="#DejaVuSans-33"/>
       <use xlink:href="#DejaVuSans-30" transform="translate(63.623047 0)"/>
       <use xlink:href="#DejaVuSans-30" transform="translate(127.246094 0)"/>
      </g>
     </g>
    </g>
    <g id="ytick_8">
     <g id="line2d_44">
      <path d="M 50.71875 61.606875 
L 410.71875 61.606875 
" clip-path="url(#p107a74b20e)" style="fill: none; stroke-dasharray: 1,3; stroke-dashoffset: 0; stroke: #000000; stroke-width: 0.5"/>
     </g>
     <g id="line2d_45">
      <g>
       <use xlink:href="#m3504da8273" x="50.71875" y="61.606875" style="stroke: #000000; stroke-width: 0.5"/>
      </g>
     </g>
     <g id="line2d_46">
      <g>
       <use xlink:href="#m85d2053ba9" x="410.71875" y="61.606875" style="stroke: #000000; stroke-width: 0.5"/>
      </g>
     </g>
     <g id="text_16">
      <!-- 350 -->
      <g transform="translate(23.81375 64.918125) scale(0.12 -0.12)">
       <use xlink:href="#DejaVuSans-33"/>
       <use xlink:href="#DejaVuSans-35" transform="translate(63.623047 0)"/>
       <use xlink:href="#DejaVuSans-30" transform="translate(127.246094 0)"/>
      </g>
     </g>
    </g>
    <g id="ytick_9">
     <g id="line2d_47">
      <path d="M 50.71875 13.006875 
L 410.71875 13.006875 
" clip-path="url(#p107a74b20e)" style="fill: none; stroke-dasharray: 1,3; stroke-dashoffset: 0; stroke: #000000; stroke-width: 0.5"/>
     </g>
     <g id="line2d_48">
      <g>
       <use xlink:href="#m3504da8273" x="50.71875" y="13.006875" style="stroke: #000000; stroke-width: 0.5"/>
      </g>
     </g>
     <g id="line2d_49">
      <g>
       <use xlink:href="#m85d2053ba9" x="410.71875" y="13.006875" style="stroke: #000000; stroke-width: 0.5"/>
      </g>
     </g>
     <g id="text_17">
      <!-- 400 -->
      <g transform="translate(23.81375 16.318125) scale(0.12 -0.12)">
       <use xlink:href="#DejaVuSans-34"/>
       <use xlink:href="#DejaVuSans-30" transform="translate(63.623047 0)"/>
       <use xlink:href="#DejaVuSans-30" transform="translate(127.246094 0)"/>
      </g>
     </g>
    </g>
    <g id="text_18">
     <!-- count -->
     <g transform="translate(16.318125 224.334375) rotate(-90) scale(0.12 -0.12)">
      <defs>
       <path id="DejaVuSans-63" d="M 3122 3366 
L 3122 2828 
Q 2878 2963 2633 3030 
Q 2388 3097 2138 3097 
Q 1578 3097 1268 2742 
Q 959 2388 959 1747 
Q 959 1106 1268 751 
Q 1578 397 2138 397 
Q 2388 397 2633 464 
Q 2878 531 3122 666 
L 3122 134 
Q 2881 22 2623 -34 
Q 2366 -91 2075 -91 
Q 1284 -91 818 406 
Q 353 903 353 1747 
Q 353 2603 823 3093 
Q 1294 3584 2113 3584 
Q 2378 3584 2631 3529 
Q 2884 3475 3122 3366 
z
" transform="scale(0.015625)"/>
       <path id="DejaVuSans-6f" d="M 1959 3097 
Q 1497 3097 1228 2736 
Q 959 2375 959 1747 
Q 959 1119 1226 758 
Q 1494 397 1959 397 
Q 2419 397 2687 759 
Q 2956 1122 2956 1747 
Q 2956 2369 2687 2733 
Q 2419 3097 1959 3097 
z
M 1959 3584 
Q 2709 3584 3137 3096 
Q 3566 2609 3566 1747 
Q 3566 888 3137 398 
Q 2709 -91 1959 -91 
Q 1206 -91 779 398 
Q 353 888 353 1747 
Q 353 2609 779 3096 
Q 1206 3584 1959 3584 
z
" transform="scale(0.015625)"/>
       <path id="DejaVuSans-75" d="M 544 1381 
L 544 3500 
L 1119 3500 
L 1119 1403 
Q 1119 906 1312 657 
Q 1506 409 1894 409 
Q 2359 409 2629 706 
Q 2900 1003 2900 1516 
L 2900 3500 
L 3475 3500 
L 3475 0 
L 2900 0 
L 2900 538 
Q 2691 219 2414 64 
Q 2138 -91 1772 -91 
Q 1169 -91 856 284 
Q 544 659 544 1381 
z
M 1991 3584 
L 1991 3584 
z
" transform="scale(0.015625)"/>
       <path id="DejaVuSans-6e" d="M 3513 2113 
L 3513 0 
L 2938 0 
L 2938 2094 
Q 2938 2591 2744 2837 
Q 2550 3084 2163 3084 
Q 1697 3084 1428 2787 
Q 1159 2491 1159 1978 
L 1159 0 
L 581 0 
L 581 3500 
L 1159 3500 
L 1159 2956 
Q 1366 3272 1645 3428 
Q 1925 3584 2291 3584 
Q 2894 3584 3203 3211 
Q 3513 2838 3513 2113 
z
" transform="scale(0.015625)"/>
      </defs>
      <use xlink:href="#DejaVuSans-63"/>
      <use xlink:href="#DejaVuSans-6f" transform="translate(54.980469 0)"/>
      <use xlink:href="#DejaVuSans-75" transform="translate(116.162109 0)"/>
      <use xlink:href="#DejaVuSans-6e" transform="translate(179.541016 0)"/>
      <use xlink:href="#DejaVuSans-74" transform="translate(242.919922 0)"/>
     </g>
    </g>
   </g>
   <g id="legend_1">
    <g id="patch_7">
     <path d="M 221.930625 40.220625 
L 404.71875 40.220625 
L 404.71875 19.006875 
L 221.930625 19.006875 
z
" style="fill: #ffffff; stroke: #000000; stroke-linejoin: miter"/>
    </g>
    <g id="line2d_50">
     <path d="M 230.330625 28.725 
L 247.130625 28.725 
" style="fill: none; stroke: #0000ff; stroke-linecap: square"/>
    </g>
    <g id="text_19">
     <!-- total number of decays -->
     <g transform="translate(260.330625 32.925) scale(0.12 -0.12)">
      <defs>
       <path id="DejaVuSans-61" d="M 2194 1759 
Q 1497 1759 1228 1600 
Q 959 1441 959 1056 
Q 959 750 1161 570 
Q 1363 391 1709 391 
Q 2188 391 2477 730 
Q 2766 1069 2766 1631 
L 2766 1759 
L 2194 1759 
z
M 3341 1997 
L 3341 0 
L 2766 0 
L 2766 531 
Q 2569 213 2275 61 
Q 1981 -91 1556 -91 
Q 1019 -91 701 211 
Q 384 513 384 1019 
Q 384 1609 779 1909 
Q 1175 2209 1959 2209 
L 2766 2209 
L 2766 2266 
Q 2766 2663 2505 2880 
Q 2244 3097 1772 3097 
Q 1472 3097 1187 3025 
Q 903 2953 641 2809 
L 641 3341 
Q 956 3463 1253 3523 
Q 1550 3584 1831 3584 
Q 2591 3584 2966 3190 
Q 3341 2797 3341 1997 
z
" transform="scale(0.015625)"/>
       <path id="DejaVuSans-6c" d="M 603 4863 
L 1178 4863 
L 1178 0 
L 603 0 
L 603 4863 
z
" transform="scale(0.015625)"/>
       <path id="DejaVuSans-20" transform="scale(0.015625)"/>
       <path id="DejaVuSans-62" d="M 3116 1747 
Q 3116 2381 2855 2742 
Q 2594 3103 2138 3103 
Q 1681 3103 1420 2742 
Q 1159 2381 1159 1747 
Q 1159 1113 1420 752 
Q 1681 391 2138 391 
Q 2594 391 2855 752 
Q 3116 1113 3116 1747 
z
M 1159 2969 
Q 1341 3281 1617 3432 
Q 1894 3584 2278 3584 
Q 2916 3584 3314 3078 
Q 3713 2572 3713 1747 
Q 3713 922 3314 415 
Q 2916 -91 2278 -91 
Q 1894 -91 1617 61 
Q 1341 213 1159 525 
L 1159 0 
L 581 0 
L 581 4863 
L 1159 4863 
L 1159 2969 
z
" transform="scale(0.015625)"/>
       <path id="DejaVuSans-72" d="M 2631 2963 
Q 2534 3019 2420 3045 
Q 2306 3072 2169 3072 
Q 1681 3072 1420 2755 
Q 1159 2438 1159 1844 
L 1159 0 
L 581 0 
L 581 3500 
L 1159 3500 
L 1159 2956 
Q 1341 3275 1631 3429 
Q 1922 3584 2338 3584 
Q 2397 3584 2469 3576 
Q 2541 3569 2628 3553 
L 2631 2963 
z
" transform="scale(0.015625)"/>
       <path id="DejaVuSans-66" d="M 2375 4863 
L 2375 4384 
L 1825 4384 
Q 1516 4384 1395 4259 
Q 1275 4134 1275 3809 
L 1275 3500 
L 2222 3500 
L 2222 3053 
L 1275 3053 
L 1275 0 
L 697 0 
L 697 3053 
L 147 3053 
L 147 3500 
L 697 3500 
L 697 3744 
Q 697 4328 969 4595 
Q 1241 4863 1831 4863 
L 2375 4863 
z
" transform="scale(0.015625)"/>
       <path id="DejaVuSans-64" d="M 2906 2969 
L 2906 4863 
L 3481 4863 
L 3481 0 
L 2906 0 
L 2906 525 
Q 2725 213 2448 61 
Q 2172 -91 1784 -91 
Q 1150 -91 751 415 
Q 353 922 353 1747 
Q 353 2572 751 3078 
Q 1150 3584 1784 3584 
Q 2172 3584 2448 3432 
Q 2725 3281 2906 2969 
z
M 947 1747 
Q 947 1113 1208 752 
Q 1469 391 1925 391 
Q 2381 391 2643 752 
Q 2906 1113 2906 1747 
Q 2906 2381 2643 2742 
Q 2381 3103 1925 3103 
Q 1469 3103 1208 2742 
Q 947 2381 947 1747 
z
" transform="scale(0.015625)"/>
       <path id="DejaVuSans-79" d="M 2059 -325 
Q 1816 -950 1584 -1140 
Q 1353 -1331 966 -1331 
L 506 -1331 
L 506 -850 
L 844 -850 
Q 1081 -850 1212 -737 
Q 1344 -625 1503 -206 
L 1606 56 
L 191 3500 
L 800 3500 
L 1894 763 
L 2988 3500 
L 3597 3500 
L 2059 -325 
z
" transform="scale(0.015625)"/>
      </defs>
      <use xlink:href="#DejaVuSans-74"/>
      <use xlink:href="#DejaVuSans-6f" transform="translate(39.208984 0)"/>
      <use xlink:href="#DejaVuSans-74" transform="translate(100.390625 0)"/>
      <use xlink:href="#DejaVuSans-61" transform="translate(139.599609 0)"/>
      <use xlink:href="#DejaVuSans-6c" transform="translate(200.878906 0)"/>
      <use xlink:href="#DejaVuSans-20" transform="translate(228.662109 0)"/>
      <use xlink:href="#DejaVuSans-6e" transform="translate(260.449219 0)"/>
      <use xlink:href="#DejaVuSans-75" transform="translate(323.828125 0)"/>
      <use xlink:href="#DejaVuSans-6d" transform="translate(387.207031 0)"/>
      <use xlink:href="#DejaVuSans-62" transform="translate(484.619141 0)"/>
      <use xlink:href="#DejaVuSans-65" transform="translate(548.095703 0)"/>
      <use xlink:href="#DejaVuSans-72" transform="translate(609.619141 0)"/>
      <use xlink:href="#DejaVuSans-20" transform="translate(650.732422 0)"/>
      <use xlink:href="#DejaVuSans-6f" transform="translate(682.519531 0)"/>
      <use xlink:href="#DejaVuSans-66" transform="translate(743.701172 0)"/>
      <use xlink:href="#DejaVuSans-20" transform="translate(778.90625 0)"/>
      <use xlink:href="#DejaVuSans-64" transform="translate(810.693359 0)"/>
      <use xlink:href="#DejaVuSans-65" transform="translate(874.169922 0)"/>
      <use xlink:href="#DejaVuSans-63" transform="translate(935.693359 0)"/>
      <use xlink:href="#DejaVuSans-61" transform="translate(990.673828 0)"/>
      <use xlink:href="#DejaVuSans-79" transform="translate(1051.953125 0)"/>
      <use xlink:href="#DejaVuSans-73" transform="translate(1111.132812 0)"/>
     </g>
    </g>
   </g>
  </g>
  <g id="axes_2">
   <g id="patch_8">
    <path d="M 482.71875 401.806875 
L 842.71875 401.806875 
L 842.71875 13.006875 
L 482.71875 13.006875 
z
" style="fill: #ffffff"/>
   </g>
   <g id="line2d_51">
    <path d="M 483.31875 337.006875 
L 483.91875 337.006875 
L 484.51875 142.606875 
L 485.11875 337.006875 
L 488.11875 337.006875 
L 488.71875 272.206875 
L 489.31875 337.006875 
L 489.91875 337.006875 
L 490.51875 272.206875 
L 491.11875 337.006875 
L 491.71875 142.606875 
L 492.31875 337.006875 
L 492.91875 272.206875 
L 494.11875 272.206875 
L 494.71875 337.006875 
L 495.31875 207.406875 
L 495.91875 272.206875 
L 497.71875 272.206875 
L 498.31875 337.006875 
L 498.91875 207.406875 
L 499.51875 337.006875 
L 500.71875 337.006875 
L 501.31875 272.206875 
L 501.91875 272.206875 
L 502.51875 207.406875 
L 503.11875 272.206875 
L 503.71875 207.406875 
L 504.31875 207.406875 
L 505.51875 337.006875 
L 506.11875 272.206875 
L 506.71875 272.206875 
L 507.31875 337.006875 
L 510.91875 337.006875 
L 511.51875 272.206875 
L 512.11875 337.006875 
L 512.71875 272.206875 
L 513.31875 337.006875 
L 515.71875 337.006875 
L 516.31875 272.206875 
L 516.91875 337.006875 
L 518.11875 337.006875 
L 518.71875 272.206875 
L 519.31875 337.006875 
L 521.71875 337.006875 
L 522.31875 272.206875 
L 522.91875 272.206875 
L 523.51875 337.006875 
L 524.71875 207.406875 
L 525.31875 337.006875 
L 525.91875 272.206875 
L 526.51875 272.206875 
L 527.11875 337.006875 
L 527.71875 272.206875 
L 528.31875 142.606875 
L 528.91875 272.206875 
L 529.51875 337.006875 
L 530.11875 207.406875 
L 530.71875 337.006875 
L 531.31875 337.006875 
L 531.91875 272.206875 
L 532.51875 337.006875 
L 534.31875 337.006875 
L 534.91875 272.206875 
L 535.51875 337.006875 
L 536.11875 272.206875 
L 537.31875 272.206875 
L 537.91875 337.006875 
L 538.51875 337.006875 
L 539.11875 272.206875 
L 539.71875 142.606875 
L 540.31875 337.006875 
L 540.91875 337.006875 
L 541.51875 272.206875 
L 542.11875 272.206875 
L 542.71875 337.006875 
L 543.31875 272.206875 
L 543.91875 337.006875 
L 544.51875 272.206875 
L 545.11875 272.206875 
L 545.71875 337.006875 
L 546.31875 272.206875 
L 546.91875 337.006875 
L 548.71875 337.006875 
L 549.31875 272.206875 
L 549.91875 272.206875 
L 550.51875 337.006875 
L 551.11875 272.206875 
L 551.71875 337.006875 
L 552.31875 207.406875 
L 552.91875 337.006875 
L 553.51875 142.606875 
L 554.11875 272.206875 
L 555.91875 272.206875 
L 556.51875 337.006875 
L 557.11875 337.006875 
L 557.71875 272.206875 
L 558.31875 142.606875 
L 558.91875 337.006875 
L 559.51875 272.206875 
L 560.11875 272.206875 
L 560.71875 337.006875 
L 561.31875 272.206875 
L 563.11875 272.206875 
L 563.71875 337.006875 
L 566.11875 337.006875 
L 566.71875 272.206875 
L 567.31875 337.006875 
L 568.51875 337.006875 
L 569.11875 142.606875 
L 569.71875 337.006875 
L 570.91875 337.006875 
L 571.51875 272.206875 
L 572.11875 272.206875 
L 572.71875 337.006875 
L 573.31875 337.006875 
L 573.91875 272.206875 
L 574.51875 142.606875 
L 575.11875 337.006875 
L 575.71875 272.206875 
L 576.31875 337.006875 
L 576.91875 337.006875 
L 577.51875 272.206875 
L 578.11875 337.006875 
L 578.71875 337.006875 
L 579.31875 272.206875 
L 580.51875 272.206875 
L 581.11875 337.006875 
L 584.71875 337.006875 
L 585.31875 272.206875 
L 585.91875 337.006875 
L 586.51875 272.206875 
L 587.71875 272.206875 
L 588.31875 337.006875 
L 588.91875 272.206875 
L 589.51875 272.206875 
L 590.11875 207.406875 
L 590.71875 337.006875 
L 591.31875 272.206875 
L 591.91875 337.006875 
L 592.51875 272.206875 
L 593.71875 272.206875 
L 594.31875 337.006875 
L 594.91875 272.206875 
L 595.51875 337.006875 
L 596.11875 337.006875 
L 596.71875 272.206875 
L 597.31875 337.006875 
L 598.51875 337.006875 
L 599.11875 272.206875 
L 599.71875 337.006875 
L 600.31875 272.206875 
L 600.91875 337.006875 
L 602.11875 207.406875 
L 602.71875 337.006875 
L 603.31875 272.206875 
L 604.51875 272.206875 
L 605.11875 207.406875 
L 606.31875 207.406875 
L 606.91875 337.006875 
L 607.51875 272.206875 
L 608.11875 337.006875 
L 609.31875 207.406875 
L 609.91875 337.006875 
L 610.51875 337.006875 
L 611.11875 207.406875 
L 613.51875 207.406875 
L 614.11875 142.606875 
L 614.71875 272.206875 
L 615.31875 337.006875 
L 616.51875 337.006875 
L 617.11875 272.206875 
L 618.31875 272.206875 
L 618.91875 207.406875 
L 619.51875 207.406875 
L 620.11875 142.606875 
L 620.71875 337.006875 
L 621.31875 272.206875 
L 621.91875 272.206875 
L 622.51875 337.006875 
L 623.11875 272.206875 
L 623.71875 337.006875 
L 624.31875 272.206875 
L 624.91875 272.206875 
L 625.51875 337.006875 
L 626.11875 207.406875 
L 627.31875 337.006875 
L 629.71875 337.006875 
L 630.31875 272.206875 
L 630.91875 337.006875 
L 635.11875 337.006875 
L 635.71875 272.206875 
L 636.31875 272.206875 
L 636.91875 337.006875 
L 637.51875 272.206875 
L 638.11875 337.006875 
L 638.71875 337.006875 
L 639.31875 272.206875 
L 639.91875 337.006875 
L 644.11875 337.006875 
L 644.71875 272.206875 
L 645.31875 272.206875 
L 645.91875 337.006875 
L 646.51875 337.006875 
L 647.11875 272.206875 
L 648.91875 272.206875 
L 649.51875 207.406875 
L 650.11875 337.006875 
L 650.71875 207.406875 
L 651.91875 337.006875 
L 653.11875 337.006875 
L 653.71875 272.206875 
L 655.51875 272.206875 
L 656.11875 337.006875 
L 657.91875 337.006875 
L 658.51875 272.206875 
L 659.11875 337.006875 
L 659.71875 207.406875 
L 660.91875 337.006875 
L 663.31875 337.006875 
L 663.91875 272.206875 
L 664.51875 272.206875 
L 665.11875 337.006875 
L 665.71875 272.206875 
L 666.31875 337.006875 
L 666.91875 272.206875 
L 667.51875 272.206875 
L 668.11875 207.406875 
L 668.71875 337.006875 
L 671.71875 337.006875 
L 672.31875 207.406875 
L 672.91875 337.006875 
L 673.51875 337.006875 
L 674.11875 272.206875 
L 674.71875 337.006875 
L 675.31875 272.206875 
L 675.91875 272.206875 
L 676.51875 337.006875 
L 677.11875 272.206875 
L 677.71875 337.006875 
L 678.31875 207.406875 
L 678.91875 337.006875 
L 680.11875 337.006875 
L 680.71875 207.406875 
L 681.31875 337.006875 
L 681.91875 272.206875 
L 682.51875 272.206875 
L 683.11875 337.006875 
L 683.71875 337.006875 
L 684.31875 272.206875 
L 684.91875 272.206875 
L 685.51875 337.006875 
L 686.11875 337.006875 
L 686.71875 272.206875 
L 688.51875 272.206875 
L 689.11875 337.006875 
L 689.71875 272.206875 
L 690.31875 272.206875 
L 690.91875 337.006875 
L 691.51875 272.206875 
L 692.11875 337.006875 
L 692.71875 337.006875 
L 693.31875 272.206875 
L 693.91875 272.206875 
L 694.51875 337.006875 
L 695.11875 337.006875 
L 695.71875 272.206875 
L 698.71875 272.206875 
L 699.31875 337.006875 
L 699.91875 337.006875 
L 700.51875 207.406875 
L 701.11875 207.406875 
L 701.71875 142.606875 
L 702.31875 272.206875 
L 702.91875 142.606875 
L 703.51875 142.606875 
L 704.11875 272.206875 
L 704.71875 337.006875 
L 708.91875 337.006875 
L 709.51875 207.406875 
L 710.11875 337.006875 
L 711.91875 337.006875 
L 712.51875 207.406875 
L 713.11875 142.606875 
L 713.71875 337.006875 
L 714.31875 337.006875 
L 714.91875 272.206875 
L 715.51875 337.006875 
L 716.11875 337.006875 
L 716.71875 272.206875 
L 718.51875 272.206875 
L 719.11875 337.006875 
L 719.71875 272.206875 
L 720.31875 272.206875 
L 720.91875 337.006875 
L 722.71875 337.006875 
L 723.31875 272.206875 
L 723.91875 337.006875 
L 724.51875 142.606875 
L 725.11875 272.206875 
L 725.71875 337.006875 
L 726.91875 337.006875 
L 727.51875 207.406875 
L 728.71875 337.006875 
L 731.11875 337.006875 
L 731.71875 272.206875 
L 732.31875 337.006875 
L 732.91875 207.406875 
L 733.51875 337.006875 
L 734.11875 207.406875 
L 734.71875 337.006875 
L 735.31875 337.006875 
L 735.91875 272.206875 
L 736.51875 337.006875 
L 737.71875 337.006875 
L 738.31875 272.206875 
L 738.91875 272.206875 
L 739.51875 337.006875 
L 740.11875 272.206875 
L 740.71875 337.006875 
L 741.31875 207.406875 
L 741.91875 337.006875 
L 742.51875 272.206875 
L 743.11875 337.006875 
L 743.71875 272.206875 
L 744.31875 142.606875 
L 744.91875 337.006875 
L 745.51875 337.006875 
L 746.11875 207.406875 
L 746.71875 207.406875 
L 747.91875 337.006875 
L 748.51875 272.206875 
L 749.11875 272.206875 
L 749.71875 337.006875 
L 751.51875 337.006875 
L 752.11875 272.206875 
L 753.91875 272.206875 
L 754.51875 207.406875 
L 755.71875 337.006875 
L 756.31875 337.006875 
L 756.91875 272.206875 
L 757.51875 272.206875 
L 758.11875 337.006875 
L 758.71875 337.006875 
L 759.91875 207.406875 
L 760.51875 337.006875 
L 765.91875 337.006875 
L 766.51875 142.606875 
L 767.11875 337.006875 
L 767.71875 337.006875 
L 768.31875 272.206875 
L 768.91875 337.006875 
L 769.51875 337.006875 
L 770.11875 272.206875 
L 770.71875 337.006875 
L 771.31875 272.206875 
L 771.91875 337.006875 
L 772.51875 337.006875 
L 773.11875 142.606875 
L 773.71875 337.006875 
L 774.31875 272.206875 
L 774.91875 337.006875 
L 776.71875 337.006875 
L 777.31875 207.406875 
L 777.91875 272.206875 
L 778.51875 272.206875 
L 779.11875 337.006875 
L 780.31875 337.006875 
L 780.91875 207.406875 
L 781.51875 337.006875 
L 782.11875 337.006875 
L 782.71875 272.206875 
L 783.31875 337.006875 
L 783.91875 272.206875 
L 784.51875 337.006875 
L 785.11875 337.006875 
L 785.71875 272.206875 
L 786.31875 337.006875 
L 786.91875 272.206875 
L 787.51875 337.006875 
L 788.11875 272.206875 
L 788.71875 272.206875 
L 789.31875 207.406875 
L 789.91875 272.206875 
L 790.51875 207.406875 
L 791.11875 337.006875 
L 791.71875 337.006875 
L 792.31875 272.206875 
L 792.91875 142.606875 
L 793.51875 337.006875 
L 794.11875 272.206875 
L 794.71875 337.006875 
L 795.31875 272.206875 
L 795.91875 337.006875 
L 797.11875 207.406875 
L 797.71875 207.406875 
L 798.31875 272.206875 
L 798.91875 272.206875 
L 799.51875 337.006875 
L 800.71875 337.006875 
L 801.31875 207.406875 
L 801.91875 337.006875 
L 802.51875 337.006875 
L 803.11875 272.206875 
L 804.91875 272.206875 
L 805.51875 337.006875 
L 806.11875 337.006875 
L 806.71875 272.206875 
L 807.91875 272.206875 
L 808.51875 337.006875 
L 809.11875 272.206875 
L 809.71875 337.006875 
L 810.31875 337.006875 
L 810.91875 272.206875 
L 811.51875 272.206875 
L 812.11875 337.006875 
L 813.91875 337.006875 
L 814.51875 272.206875 
L 816.31875 272.206875 
L 816.91875 337.006875 
L 817.51875 272.206875 
L 818.11875 337.006875 
L 819.31875 337.006875 
L 819.91875 207.406875 
L 820.51875 337.006875 
L 821.11875 337.006875 
L 821.71875 272.206875 
L 822.31875 337.006875 
L 822.91875 272.206875 
L 823.51875 337.006875 
L 824.11875 272.206875 
L 824.71875 337.006875 
L 828.91875 337.006875 
L 829.51875 272.206875 
L 830.11875 337.006875 
L 830.71875 272.206875 
L 831.31875 272.206875 
L 831.91875 337.006875 
L 832.51875 272.206875 
L 833.11875 337.006875 
L 833.71875 337.006875 
L 834.31875 207.406875 
L 834.91875 337.006875 
L 835.51875 337.006875 
L 836.11875 207.406875 
L 836.71875 337.006875 
L 837.31875 272.206875 
L 837.91875 272.206875 
L 838.51875 142.606875 
L 839.11875 337.006875 
L 840.31875 337.006875 
L 840.91875 272.206875 
L 841.51875 337.006875 
L 842.11875 272.206875 
L 842.71875 337.006875 
L 842.71875 337.006875 
" clip-path="url(#pd4ee6caa1f)" style="fill: none; stroke: #bf00bf; stroke-linecap: square"/>
   </g>
   <g id="patch_9">
    <path d="M 482.71875 401.806875 
L 482.71875 13.006875 
" style="fill: none; stroke: #000000; stroke-linejoin: miter; stroke-linecap: square"/>
   </g>
   <g id="patch_10">
    <path d="M 842.71875 401.806875 
L 842.71875 13.006875 
" style="fill: none; stroke: #000000; stroke-linejoin: miter; stroke-linecap: square"/>
   </g>
   <g id="patch_11">
    <path d="M 482.71875 401.806875 
L 842.71875 401.806875 
" style="fill: none; stroke: #000000; stroke-linejoin: miter; stroke-linecap: square"/>
   </g>
   <g id="patch_12">
    <path d="M 482.71875 13.006875 
L 842.71875 13.006875 
" style="fill: none; stroke: #000000; stroke-linejoin: miter; stroke-linecap: square"/>
   </g>
   <g id="matplotlib.axis_3">
    <g id="xtick_8">
     <g id="line2d_52">
      <path d="M 482.71875 401.806875 
L 482.71875 13.006875 
" clip-path="url(#pd4ee6caa1f)" style="fill: none; stroke-dasharray: 1,3; stroke-dashoffset: 0; stroke: #000000; stroke-width: 0.5"/>
     </g>
     <g id="line2d_53">
      <g>
       <use xlink:href="#m22fe06038a" x="482.71875" y="401.806875" style="stroke: #000000; stroke-width: 0.5"/>
      </g>
     </g>
     <g id="line2d_54">
      <g>
       <use xlink:href="#m2999782856" x="482.71875" y="13.006875" style="stroke: #000000; stroke-width: 0.5"/>
      </g>
     </g>
     <g id="text_20">
      <!-- 0 -->
      <g transform="translate(478.90125 414.925) scale(0.12 -0.12)">
       <use xlink:href="#DejaVuSans-30"/>
      </g>
     </g>
    </g>
    <g id="xtick_9">
     <g id="line2d_55">
      <path d="M 542.71875 401.806875 
L 542.71875 13.006875 
" clip-path="url(#pd4ee6caa1f)" style="fill: none; stroke-dasharray: 1,3; stroke-dashoffset: 0; stroke: #000000; stroke-width: 0.5"/>
     </g>
     <g id="line2d_56">
      <g>
       <use xlink:href="#m22fe06038a" x="542.71875" y="401.806875" style="stroke: #000000; stroke-width: 0.5"/>
      </g>
     </g>
     <g id="line2d_57">
      <g>
       <use xlink:href="#m2999782856" x="542.71875" y="13.006875" style="stroke: #000000; stroke-width: 0.5"/>
      </g>
     </g>
     <g id="text_21">
      <!-- 100 -->
      <g transform="translate(531.26625 414.925) scale(0.12 -0.12)">
       <use xlink:href="#DejaVuSans-31"/>
       <use xlink:href="#DejaVuSans-30" transform="translate(63.623047 0)"/>
       <use xlink:href="#DejaVuSans-30" transform="translate(127.246094 0)"/>
      </g>
     </g>
    </g>
    <g id="xtick_10">
     <g id="line2d_58">
      <path d="M 602.71875 401.806875 
L 602.71875 13.006875 
" clip-path="url(#pd4ee6caa1f)" style="fill: none; stroke-dasharray: 1,3; stroke-dashoffset: 0; stroke: #000000; stroke-width: 0.5"/>
     </g>
     <g id="line2d_59">
      <g>
       <use xlink:href="#m22fe06038a" x="602.71875" y="401.806875" style="stroke: #000000; stroke-width: 0.5"/>
      </g>
     </g>
     <g id="line2d_60">
      <g>
       <use xlink:href="#m2999782856" x="602.71875" y="13.006875" style="stroke: #000000; stroke-width: 0.5"/>
      </g>
     </g>
     <g id="text_22">
      <!-- 200 -->
      <g transform="translate(591.26625 414.925) scale(0.12 -0.12)">
       <use xlink:href="#DejaVuSans-32"/>
       <use xlink:href="#DejaVuSans-30" transform="translate(63.623047 0)"/>
       <use xlink:href="#DejaVuSans-30" transform="translate(127.246094 0)"/>
      </g>
     </g>
    </g>
    <g id="xtick_11">
     <g id="line2d_61">
      <path d="M 662.71875 401.806875 
L 662.71875 13.006875 
" clip-path="url(#pd4ee6caa1f)" style="fill: none; stroke-dasharray: 1,3; stroke-dashoffset: 0; stroke: #000000; stroke-width: 0.5"/>
     </g>
     <g id="line2d_62">
      <g>
       <use xlink:href="#m22fe06038a" x="662.71875" y="401.806875" style="stroke: #000000; stroke-width: 0.5"/>
      </g>
     </g>
     <g id="line2d_63">
      <g>
       <use xlink:href="#m2999782856" x="662.71875" y="13.006875" style="stroke: #000000; stroke-width: 0.5"/>
      </g>
     </g>
     <g id="text_23">
      <!-- 300 -->
      <g transform="translate(651.26625 414.925) scale(0.12 -0.12)">
       <use xlink:href="#DejaVuSans-33"/>
       <use xlink:href="#DejaVuSans-30" transform="translate(63.623047 0)"/>
       <use xlink:href="#DejaVuSans-30" transform="translate(127.246094 0)"/>
      </g>
     </g>
    </g>
    <g id="xtick_12">
     <g id="line2d_64">
      <path d="M 722.71875 401.806875 
L 722.71875 13.006875 
" clip-path="url(#pd4ee6caa1f)" style="fill: none; stroke-dasharray: 1,3; stroke-dashoffset: 0; stroke: #000000; stroke-width: 0.5"/>
     </g>
     <g id="line2d_65">
      <g>
       <use xlink:href="#m22fe06038a" x="722.71875" y="401.806875" style="stroke: #000000; stroke-width: 0.5"/>
      </g>
     </g>
     <g id="line2d_66">
      <g>
       <use xlink:href="#m2999782856" x="722.71875" y="13.006875" style="stroke: #000000; stroke-width: 0.5"/>
      </g>
     </g>
     <g id="text_24">
      <!-- 400 -->
      <g transform="translate(711.26625 414.925) scale(0.12 -0.12)">
       <use xlink:href="#DejaVuSans-34"/>
       <use xlink:href="#DejaVuSans-30" transform="translate(63.623047 0)"/>
       <use xlink:href="#DejaVuSans-30" transform="translate(127.246094 0)"/>
      </g>
     </g>
    </g>
    <g id="xtick_13">
     <g id="line2d_67">
      <path d="M 782.71875 401.806875 
L 782.71875 13.006875 
" clip-path="url(#pd4ee6caa1f)" style="fill: none; stroke-dasharray: 1,3; stroke-dashoffset: 0; stroke: #000000; stroke-width: 0.5"/>
     </g>
     <g id="line2d_68">
      <g>
       <use xlink:href="#m22fe06038a" x="782.71875" y="401.806875" style="stroke: #000000; stroke-width: 0.5"/>
      </g>
     </g>
     <g id="line2d_69">
      <g>
       <use xlink:href="#m2999782856" x="782.71875" y="13.006875" style="stroke: #000000; stroke-width: 0.5"/>
      </g>
     </g>
     <g id="text_25">
      <!-- 500 -->
      <g transform="translate(771.26625 414.925) scale(0.12 -0.12)">
       <use xlink:href="#DejaVuSans-35"/>
       <use xlink:href="#DejaVuSans-30" transform="translate(63.623047 0)"/>
       <use xlink:href="#DejaVuSans-30" transform="translate(127.246094 0)"/>
      </g>
     </g>
    </g>
    <g id="xtick_14">
     <g id="line2d_70">
      <path d="M 842.71875 401.806875 
L 842.71875 13.006875 
" clip-path="url(#pd4ee6caa1f)" style="fill: none; stroke-dasharray: 1,3; stroke-dashoffset: 0; stroke: #000000; stroke-width: 0.5"/>
     </g>
     <g id="line2d_71">
      <g>
       <use xlink:href="#m22fe06038a" x="842.71875" y="401.806875" style="stroke: #000000; stroke-width: 0.5"/>
      </g>
     </g>
     <g id="line2d_72">
      <g>
       <use xlink:href="#m2999782856" x="842.71875" y="13.006875" style="stroke: #000000; stroke-width: 0.5"/>
      </g>
     </g>
     <g id="text_26">
      <!-- 600 -->
      <g transform="translate(831.26625 414.925) scale(0.12 -0.12)">
       <use xlink:href="#DejaVuSans-36"/>
       <use xlink:href="#DejaVuSans-30" transform="translate(63.623047 0)"/>
       <use xlink:href="#DejaVuSans-30" transform="translate(127.246094 0)"/>
      </g>
     </g>
    </g>
    <g id="text_27">
     <!-- time(s) -->
     <g transform="translate(641.355937 431.53875) scale(0.12 -0.12)">
      <use xlink:href="#DejaVuSans-74"/>
      <use xlink:href="#DejaVuSans-69" transform="translate(39.208984 0)"/>
      <use xlink:href="#DejaVuSans-6d" transform="translate(66.992188 0)"/>
      <use xlink:href="#DejaVuSans-65" transform="translate(164.404297 0)"/>
      <use xlink:href="#DejaVuSans-28" transform="translate(225.927734 0)"/>
      <use xlink:href="#DejaVuSans-73" transform="translate(264.941406 0)"/>
      <use xlink:href="#DejaVuSans-29" transform="translate(317.041016 0)"/>
     </g>
    </g>
   </g>
   <g id="matplotlib.axis_4">
    <g id="ytick_10">
     <g id="line2d_73">
      <path d="M 482.71875 401.806875 
L 842.71875 401.806875 
" clip-path="url(#pd4ee6caa1f)" style="fill: none; stroke-dasharray: 1,3; stroke-dashoffset: 0; stroke: #000000; stroke-width: 0.5"/>
     </g>
     <g id="line2d_74">
      <g>
       <use xlink:href="#m3504da8273" x="482.71875" y="401.806875" style="stroke: #000000; stroke-width: 0.5"/>
      </g>
     </g>
     <g id="line2d_75">
      <g>
       <use xlink:href="#m85d2053ba9" x="842.71875" y="401.806875" style="stroke: #000000; stroke-width: 0.5"/>
      </g>
     </g>
     <g id="text_28">
      <!-- 1 -->
      <g transform="translate(461.028125 405.118125) scale(0.12 -0.12)">
       <defs>
        <path id="DejaVuSans-2212" d="M 678 2272 
L 4684 2272 
L 4684 1741 
L 678 1741 
L 678 2272 
z
" transform="scale(0.015625)"/>
       </defs>
       <use xlink:href="#DejaVuSans-2212"/>
       <use xlink:href="#DejaVuSans-31" transform="translate(83.789062 0)"/>
      </g>
     </g>
    </g>
    <g id="ytick_11">
     <g id="line2d_76">
      <path d="M 482.71875 337.006875 
L 842.71875 337.006875 
" clip-path="url(#pd4ee6caa1f)" style="fill: none; stroke-dasharray: 1,3; stroke-dashoffset: 0; stroke: #000000; stroke-width: 0.5"/>
     </g>
     <g id="line2d_77">
      <g>
       <use xlink:href="#m3504da8273" x="482.71875" y="337.006875" style="stroke: #000000; stroke-width: 0.5"/>
      </g>
     </g>
     <g id="line2d_78">
      <g>
       <use xlink:href="#m85d2053ba9" x="842.71875" y="337.006875" style="stroke: #000000; stroke-width: 0.5"/>
      </g>
     </g>
     <g id="text_29">
      <!-- 0 -->
      <g transform="translate(471.08375 340.318125) scale(0.12 -0.12)">
       <use xlink:href="#DejaVuSans-30"/>
      </g>
     </g>
    </g>
    <g id="ytick_12">
     <g id="line2d_79">
      <path d="M 482.71875 272.206875 
L 842.71875 272.206875 
" clip-path="url(#pd4ee6caa1f)" style="fill: none; stroke-dasharray: 1,3; stroke-dashoffset: 0; stroke: #000000; stroke-width: 0.5"/>
     </g>
     <g id="line2d_80">
      <g>
       <use xlink:href="#m3504da8273" x="482.71875" y="272.206875" style="stroke: #000000; stroke-width: 0.5"/>
      </g>
     </g>
     <g id="line2d_81">
      <g>
       <use xlink:href="#m85d2053ba9" x="842.71875" y="272.206875" style="stroke: #000000; stroke-width: 0.5"/>
      </g>
     </g>
     <g id="text_30">
      <!-- 1 -->
      <g transform="translate(471.08375 275.518125) scale(0.12 -0.12)">
       <use xlink:href="#DejaVuSans-31"/>
      </g>
     </g>
    </g>
    <g id="ytick_13">
     <g id="line2d_82">
      <path d="M 482.71875 207.406875 
L 842.71875 207.406875 
" clip-path="url(#pd4ee6caa1f)" style="fill: none; stroke-dasharray: 1,3; stroke-dashoffset: 0; stroke: #000000; stroke-width: 0.5"/>
     </g>
     <g id="line2d_83">
      <g>
       <use xlink:href="#m3504da8273" x="482.71875" y="207.406875" style="stroke: #000000; stroke-width: 0.5"/>
      </g>
     </g>
     <g id="line2d_84">
      <g>
       <use xlink:href="#m85d2053ba9" x="842.71875" y="207.406875" style="stroke: #000000; stroke-width: 0.5"/>
      </g>
     </g>
     <g id="text_31">
      <!-- 2 -->
      <g transform="translate(471.08375 210.718125) scale(0.12 -0.12)">
       <use xlink:href="#DejaVuSans-32"/>
      </g>
     </g>
    </g>
    <g id="ytick_14">
     <g id="line2d_85">
      <path d="M 482.71875 142.606875 
L 842.71875 142.606875 
" clip-path="url(#pd4ee6caa1f)" style="fill: none; stroke-dasharray: 1,3; stroke-dashoffset: 0; stroke: #000000; stroke-width: 0.5"/>
     </g>
     <g id="line2d_86">
      <g>
       <use xlink:href="#m3504da8273" x="482.71875" y="142.606875" style="stroke: #000000; stroke-width: 0.5"/>
      </g>
     </g>
     <g id="line2d_87">
      <g>
       <use xlink:href="#m85d2053ba9" x="842.71875" y="142.606875" style="stroke: #000000; stroke-width: 0.5"/>
      </g>
     </g>
     <g id="text_32">
      <!-- 3 -->
      <g transform="translate(471.08375 145.918125) scale(0.12 -0.12)">
       <use xlink:href="#DejaVuSans-33"/>
      </g>
     </g>
    </g>
    <g id="ytick_15">
     <g id="line2d_88">
      <path d="M 482.71875 77.806875 
L 842.71875 77.806875 
" clip-path="url(#pd4ee6caa1f)" style="fill: none; stroke-dasharray: 1,3; stroke-dashoffset: 0; stroke: #000000; stroke-width: 0.5"/>
     </g>
     <g id="line2d_89">
      <g>
       <use xlink:href="#m3504da8273" x="482.71875" y="77.806875" style="stroke: #000000; stroke-width: 0.5"/>
      </g>
     </g>
     <g id="line2d_90">
      <g>
       <use xlink:href="#m85d2053ba9" x="842.71875" y="77.806875" style="stroke: #000000; stroke-width: 0.5"/>
      </g>
     </g>
     <g id="text_33">
      <!-- 4 -->
      <g transform="translate(471.08375 81.118125) scale(0.12 -0.12)">
       <use xlink:href="#DejaVuSans-34"/>
      </g>
     </g>
    </g>
    <g id="ytick_16">
     <g id="line2d_91">
      <path d="M 482.71875 13.006875 
L 842.71875 13.006875 
" clip-path="url(#pd4ee6caa1f)" style="fill: none; stroke-dasharray: 1,3; stroke-dashoffset: 0; stroke: #000000; stroke-width: 0.5"/>
     </g>
     <g id="line2d_92">
      <g>
       <use xlink:href="#m3504da8273" x="482.71875" y="13.006875" style="stroke: #000000; stroke-width: 0.5"/>
      </g>
     </g>
     <g id="line2d_93">
      <g>
       <use xlink:href="#m85d2053ba9" x="842.71875" y="13.006875" style="stroke: #000000; stroke-width: 0.5"/>
      </g>
     </g>
     <g id="text_34">
      <!-- 5 -->
      <g transform="translate(471.08375 16.318125) scale(0.12 -0.12)">
       <use xlink:href="#DejaVuSans-35"/>
      </g>
     </g>
    </g>
    <g id="text_35">
     <!-- count increase -->
     <g transform="translate(453.5325 251.5275) rotate(-90) scale(0.12 -0.12)">
      <use xlink:href="#DejaVuSans-63"/>
      <use xlink:href="#DejaVuSans-6f" transform="translate(54.980469 0)"/>
      <use xlink:href="#DejaVuSans-75" transform="translate(116.162109 0)"/>
      <use xlink:href="#DejaVuSans-6e" transform="translate(179.541016 0)"/>
      <use xlink:href="#DejaVuSans-74" transform="translate(242.919922 0)"/>
      <use xlink:href="#DejaVuSans-20" transform="translate(282.128906 0)"/>
      <use xlink:href="#DejaVuSans-69" transform="translate(313.916016 0)"/>
      <use xlink:href="#DejaVuSans-6e" transform="translate(341.699219 0)"/>
      <use xlink:href="#DejaVuSans-63" transform="translate(405.078125 0)"/>
      <use xlink:href="#DejaVuSans-72" transform="translate(460.058594 0)"/>
      <use xlink:href="#DejaVuSans-65" transform="translate(498.921875 0)"/>
      <use xlink:href="#DejaVuSans-61" transform="translate(560.445312 0)"/>
      <use xlink:href="#DejaVuSans-73" transform="translate(621.724609 0)"/>
      <use xlink:href="#DejaVuSans-65" transform="translate(673.824219 0)"/>
     </g>
    </g>
   </g>
   <g id="legend_2">
    <g id="patch_13">
     <path d="M 635.43375 40.220625 
L 836.71875 40.220625 
L 836.71875 19.006875 
L 635.43375 19.006875 
z
" style="fill: #ffffff; stroke: #000000; stroke-linejoin: miter"/>
    </g>
    <g id="line2d_94">
     <path d="M 643.83375 28.725 
L 660.63375 28.725 
" style="fill: none; stroke: #bf00bf; stroke-linecap: square"/>
    </g>
    <g id="text_36">
     <!-- change in count over time -->
     <g transform="translate(673.83375 32.925) scale(0.12 -0.12)">
      <defs>
       <path id="DejaVuSans-68" d="M 3513 2113 
L 3513 0 
L 2938 0 
L 2938 2094 
Q 2938 2591 2744 2837 
Q 2550 3084 2163 3084 
Q 1697 3084 1428 2787 
Q 1159 2491 1159 1978 
L 1159 0 
L 581 0 
L 581 4863 
L 1159 4863 
L 1159 2956 
Q 1366 3272 1645 3428 
Q 1925 3584 2291 3584 
Q 2894 3584 3203 3211 
Q 3513 2838 3513 2113 
z
" transform="scale(0.015625)"/>
       <path id="DejaVuSans-67" d="M 2906 1791 
Q 2906 2416 2648 2759 
Q 2391 3103 1925 3103 
Q 1463 3103 1205 2759 
Q 947 2416 947 1791 
Q 947 1169 1205 825 
Q 1463 481 1925 481 
Q 2391 481 2648 825 
Q 2906 1169 2906 1791 
z
M 3481 434 
Q 3481 -459 3084 -895 
Q 2688 -1331 1869 -1331 
Q 1566 -1331 1297 -1286 
Q 1028 -1241 775 -1147 
L 775 -588 
Q 1028 -725 1275 -790 
Q 1522 -856 1778 -856 
Q 2344 -856 2625 -561 
Q 2906 -266 2906 331 
L 2906 616 
Q 2728 306 2450 153 
Q 2172 0 1784 0 
Q 1141 0 747 490 
Q 353 981 353 1791 
Q 353 2603 747 3093 
Q 1141 3584 1784 3584 
Q 2172 3584 2450 3431 
Q 2728 3278 2906 2969 
L 2906 3500 
L 3481 3500 
L 3481 434 
z
" transform="scale(0.015625)"/>
       <path id="DejaVuSans-76" d="M 191 3500 
L 800 3500 
L 1894 563 
L 2988 3500 
L 3597 3500 
L 2284 0 
L 1503 0 
L 191 3500 
z
" transform="scale(0.015625)"/>
      </defs>
      <use xlink:href="#DejaVuSans-63"/>
      <use xlink:href="#DejaVuSans-68" transform="translate(54.980469 0)"/>
      <use xlink:href="#DejaVuSans-61" transform="translate(118.359375 0)"/>
      <use xlink:href="#DejaVuSans-6e" transform="translate(179.638672 0)"/>
      <use xlink:href="#DejaVuSans-67" transform="translate(243.017578 0)"/>
      <use xlink:href="#DejaVuSans-65" transform="translate(306.494141 0)"/>
      <use xlink:href="#DejaVuSans-20" transform="translate(368.017578 0)"/>
      <use xlink:href="#DejaVuSans-69" transform="translate(399.804688 0)"/>
      <use xlink:href="#DejaVuSans-6e" transform="translate(427.587891 0)"/>
      <use xlink:href="#DejaVuSans-20" transform="translate(490.966797 0)"/>
      <use xlink:href="#DejaVuSans-63" transform="translate(522.753906 0)"/>
      <use xlink:href="#DejaVuSans-6f" transform="translate(577.734375 0)"/>
      <use xlink:href="#DejaVuSans-75" transform="translate(638.916016 0)"/>
      <use xlink:href="#DejaVuSans-6e" transform="translate(702.294922 0)"/>
      <use xlink:href="#DejaVuSans-74" transform="translate(765.673828 0)"/>
      <use xlink:href="#DejaVuSans-20" transform="translate(804.882812 0)"/>
      <use xlink:href="#DejaVuSans-6f" transform="translate(836.669922 0)"/>
      <use xlink:href="#DejaVuSans-76" transform="translate(897.851562 0)"/>
      <use xlink:href="#DejaVuSans-65" transform="translate(957.03125 0)"/>
      <use xlink:href="#DejaVuSans-72" transform="translate(1018.554688 0)"/>
      <use xlink:href="#DejaVuSans-20" transform="translate(1059.667969 0)"/>
      <use xlink:href="#DejaVuSans-74" transform="translate(1091.455078 0)"/>
      <use xlink:href="#DejaVuSans-69" transform="translate(1130.664062 0)"/>
      <use xlink:href="#DejaVuSans-6d" transform="translate(1158.447266 0)"/>
      <use xlink:href="#DejaVuSans-65" transform="translate(1255.859375 0)"/>
     </g>
    </g>
   </g>
  </g>
 </g>
 <defs>
  <clipPath id="p107a74b20e">
   <rect x="50.71875" y="13.006875" width="360" height="388.8"/>
  </clipPath>
  <clipPath id="pd4ee6caa1f">
   <rect x="482.71875" y="13.006875" width="360" height="388.8"/>
  </clipPath>
 </defs>
</svg>
